# File created by Blade
# Date/Time:  Thu Jan 22 15:49:58 2015
# Frame Rate: 120.000 fps
#------------------------------------------------------
:FULLY-SPECIFIED
:DEGREES
1439
root 3.379253 37.121537 4.878626 -3.301312 -1.692093 3.005097
RightUpLeg 11.594925 -6.828531 -6.339335
RightLeg -5.279533 -0.000000 0.000000
RightFoot -11.757529 -13.370944 17.093159
RightToeBase 14.403939 -0.000000 -0.000000
LeftUpLeg 9.893340 5.657729 1.126303
LeftLeg -3.028103 -0.000000 0.000000
LeftFoot -6.347681 6.902928 -16.755007
LeftToeBase 8.612646 -0.000000 -0.000000
Spine 3.089821 -21.084410 -6.642972
RightShoulder 2.180853 -16.462705 -18.183212
RightArm 44.439631 -13.737416 68.062916
RightForeArm 57.485027 -0.000000 129.147047
RightHand 22.512637 0.000000 -4.357052
RightHandThumb1 -24.326973 -0.000000 -32.862282
LeftShoulder -5.810562 1.228787 43.927617
LeftArm 133.767020 1.911768 -52.894816
LeftForeArm -15.315613 0.000000 125.399032
LeftHand -12.411856 -0.000000 -29.060471
LeftHandThumb1 -26.253704 0.000000 33.147579
Head -4.709467 48.295652 -12.693933
1440
root 3.376774 37.120522 4.881566 -3.301371 -1.698884 3.002529
RightUpLeg 11.602083 -6.823618 -6.334814
RightLeg -5.287231 -0.000000 0.000000
RightFoot -11.765598 -13.364631 17.102850
RightToeBase 14.421449 -0.000000 -0.000000
LeftUpLeg 9.902219 5.652231 1.130965
LeftLeg -3.031897 -0.000000 0.000000
LeftFoot -6.353396 6.909108 -16.752898
LeftToeBase 8.573156 -0.000000 -0.000000
Spine 3.078708 -21.085268 -6.656380
RightShoulder 2.139201 -16.412608 -18.155029
RightArm 44.390650 -13.754061 68.069214
RightForeArm 57.514196 -0.000000 129.158307
RightHand 22.528923 0.000000 -4.386082
RightHandThumb1 -24.326973 -0.000000 -32.862282
LeftShoulder -5.802403 1.244697 43.969801
LeftArm 133.803725 1.895691 -52.926492
LeftForeArm -15.275068 0.000000 125.396257
LeftHand -12.423786 0.000000 -29.121367
LeftHandThumb1 -26.253704 0.000000 33.147579
Head -4.752136 48.309401 -12.673061
1441
root 3.372198 37.121066 4.882792 -3.309673 -1.708193 2.995317
RightUpLeg 11.610213 -6.796141 -6.317331
RightLeg -5.290517 -0.000000 0.000000
RightFoot -11.750266 -13.361841 17.081742
RightToeBase 14.330420 -0.000000 -0.000000
LeftUpLeg 9.915618 5.652635 1.146207
LeftLeg -3.037831 -0.000000 0.000000
LeftFoot -6.352923 6.925153 -16.767206
LeftToeBase 8.609917 -0.000000 -0.000000
Spine 3.058521 -21.108892 -6.629489
RightShoulder 2.169267 -16.446032 -18.210548
RightArm 44.421577 -13.771497 68.106916
RightForeArm 57.484755 -0.000000 129.172314
RightHand 22.519348 -0.000000 -4.434466
RightHandThumb1 -24.326973 -0.000000 -32.862282
LeftShoulder -5.773398 1.194985 43.937816
LeftArm 133.772104 1.877094 -52.963131
LeftForeArm -15.235467 0.000000 125.414767
LeftHand -12.508104 -0.000000 -29.229764
LeftHandThumb1 -26.253704 0.000000 33.147579
Head -4.755291 48.315179 -12.747182
1442
root 3.370495 37.119451 4.885949 -3.311816 -1.714381 2.997166
RightUpLeg 11.618638 -6.804920 -6.319939
RightLeg -5.295861 -0.000000 0.000000
RightFoot -11.749036 -13.347496 17.059033
RightToeBase 14.363355 -0.000000 -0.000000
LeftUpLeg 9.924729 5.671681 1.148800
LeftLeg -3.037449 -0.000000 0.000000
LeftFoot -6.377520 6.911019 -16.776939
LeftToeBase 8.640175 -0.000000 -0.000000
Spine 3.064774 -21.089249 -6.660131
RightShoulder 2.097300 -16.377661 -18.153391
RightArm 44.358181 -13.787696 68.096649
RightForeArm 57.517947 -0.000000 129.198833
RightHand 22.496376 0.000000 -4.482122
RightHandThumb1 -24.326973 -0.000000 -32.862282
LeftShoulder -5.774237 1.215044 43.998510
LeftArm 133.829358 1.906870 -52.984377
LeftForeArm -15.069392 -0.000000 125.418960
LeftHand -12.536463 -0.000000 -29.209502
LeftHandThumb1 -26.253704 0.000000 33.147579
Head -4.823826 48.345319 -12.695546
1443
root 3.366709 37.119800 4.887378 -3.303157 -1.716415 2.987576
RightUpLeg 11.612979 -6.778238 -6.301165
RightLeg -5.289179 -0.000000 0.000000
RightFoot -11.775569 -13.375926 17.107251
RightToeBase 14.413127 -0.000000 -0.000000
LeftUpLeg 9.919205 5.669920 1.164088
LeftLeg -3.037992 -0.000000 0.000000
LeftFoot -6.367292 6.908585 -16.779734
LeftToeBase 8.575763 -0.000000 -0.000000
Spine 3.029925 -21.109428 -6.642397
RightShoulder 2.107299 -16.414723 -18.165664
RightArm 44.376426 -13.781871 68.095904
RightForeArm 57.482491 -0.000000 129.222461
RightHand 22.484256 0.000000 -4.540861
RightHandThumb1 -24.326973 -0.000000 -32.862282
LeftShoulder -5.764097 1.194106 44.004415
LeftArm 133.818351 1.936598 -53.003111
LeftForeArm -14.924586 -0.000000 125.440461
LeftHand -12.565866 0.000000 -29.232219
LeftHandThumb1 -26.253704 0.000000 33.147579
Head -4.820584 48.365537 -12.704065
